<mxfile host="app.diagrams.net" modified="2021-10-16T20:02:47.683Z" agent="5.0 (Windows)" etag="uKRksZBPhDSw4h24ZNDl" version="15.5.4" type="github">
  <diagram id="mMpzZg5TJ10koLwNQ0S1" name="Page-1">
    <mxGraphModel dx="1027" dy="512" grid="1" gridSize="10" guides="1" tooltips="1" connect="1" arrows="1" fold="1" page="1" pageScale="1" pageWidth="850" pageHeight="1100" math="0" shadow="0">
      <root>
        <mxCell id="0" />
        <mxCell id="1" parent="0" />
        <mxCell id="EInlpvZuZS8mgnIWAViY-1" value="" style="rounded=0;whiteSpace=wrap;html=1;sketch=1;" vertex="1" parent="1">
          <mxGeometry x="40" y="40" width="760" height="480" as="geometry" />
        </mxCell>
        <mxCell id="EInlpvZuZS8mgnIWAViY-8" value="" style="rounded=1;whiteSpace=wrap;html=1;fontSize=16;align=right;sketch=1;" vertex="1" parent="1">
          <mxGeometry x="60" y="110" width="290" height="380" as="geometry" />
        </mxCell>
        <mxCell id="EInlpvZuZS8mgnIWAViY-7" value="" style="sketch=1;aspect=fixed;html=1;points=[];align=center;image;fontSize=12;image=img/lib/mscae/Person.svg;" vertex="1" parent="1">
          <mxGeometry x="82.75" y="134.79" width="244.5" height="330.42" as="geometry" />
        </mxCell>
        <mxCell id="EInlpvZuZS8mgnIWAViY-3" value="Quote: [ENTER USER QUOTE HERE]" style="rounded=1;whiteSpace=wrap;html=1;glass=0;opacity=50;fillColor=#f5f5f5;fontColor=#333333;strokeColor=#666666;sketch=1;" vertex="1" parent="1">
          <mxGeometry x="70" y="420" width="270" height="60" as="geometry" />
        </mxCell>
        <mxCell id="EInlpvZuZS8mgnIWAViY-5" value="&lt;div style=&quot;font-size: 16px&quot; align=&quot;right&quot;&gt;&lt;font style=&quot;font-size: 24px&quot;&gt;User Persona:&lt;/font&gt; &lt;font size=&quot;1&quot;&gt;[ENTER NAME HERE]&lt;/font&gt;&lt;br&gt;&lt;/div&gt;" style="text;html=1;strokeColor=none;fillColor=none;align=center;verticalAlign=middle;whiteSpace=wrap;rounded=0;sketch=1;" vertex="1" parent="1">
          <mxGeometry x="30" y="60" width="350" height="30" as="geometry" />
        </mxCell>
        <mxCell id="EInlpvZuZS8mgnIWAViY-9" value="[USER PICTURE HERE]" style="text;html=1;strokeColor=none;fillColor=none;align=center;verticalAlign=middle;whiteSpace=wrap;rounded=0;glass=0;fontSize=16;opacity=50;sketch=1;" vertex="1" parent="1">
          <mxGeometry x="115" y="190" width="180" height="150" as="geometry" />
        </mxCell>
        <mxCell id="EInlpvZuZS8mgnIWAViY-10" value="" style="rounded=1;whiteSpace=wrap;html=1;glass=0;fontSize=16;align=right;opacity=50;sketch=1;shadow=0;" vertex="1" parent="1">
          <mxGeometry x="590" y="70" width="180" height="130" as="geometry" />
        </mxCell>
        <mxCell id="EInlpvZuZS8mgnIWAViY-13" value="" style="rounded=1;whiteSpace=wrap;html=1;glass=0;fontSize=16;align=right;opacity=50;sketch=1;shadow=0;" vertex="1" parent="1">
          <mxGeometry x="380" y="70" width="180" height="220" as="geometry" />
        </mxCell>
        <mxCell id="EInlpvZuZS8mgnIWAViY-14" value="" style="rounded=1;whiteSpace=wrap;html=1;glass=0;fontSize=16;align=right;opacity=50;sketch=1;shadow=0;" vertex="1" parent="1">
          <mxGeometry x="590" y="223" width="180" height="130" as="geometry" />
        </mxCell>
        <mxCell id="EInlpvZuZS8mgnIWAViY-15" value="" style="rounded=1;whiteSpace=wrap;html=1;glass=0;fontSize=16;align=right;opacity=50;sketch=1;shadow=0;" vertex="1" parent="1">
          <mxGeometry x="590" y="378" width="180" height="130" as="geometry" />
        </mxCell>
        <mxCell id="EInlpvZuZS8mgnIWAViY-17" value="" style="rounded=1;whiteSpace=wrap;html=1;glass=0;fontSize=16;align=right;opacity=50;sketch=1;shadow=0;" vertex="1" parent="1">
          <mxGeometry x="380" y="306" width="180" height="90" as="geometry" />
        </mxCell>
        <mxCell id="EInlpvZuZS8mgnIWAViY-18" value="&lt;div style=&quot;font-size: 12px&quot; align=&quot;left&quot;&gt;&lt;font style=&quot;font-size: 12px&quot;&gt;Age: [ENTER&amp;nbsp; HERE]&lt;br&gt;Location: [ENTER HERE]&lt;br&gt;Occupation: [ENTER HERE] &lt;/font&gt;&lt;/div&gt;" style="text;html=1;strokeColor=none;fillColor=none;align=left;verticalAlign=middle;whiteSpace=wrap;rounded=0;shadow=0;glass=0;sketch=1;fontSize=16;opacity=50;" vertex="1" parent="1">
          <mxGeometry x="390" y="80" width="210" height="60" as="geometry" />
        </mxCell>
        <mxCell id="EInlpvZuZS8mgnIWAViY-19" value="Bio: [ENTER USER BIO HERE]" style="text;html=1;strokeColor=none;fillColor=none;align=left;verticalAlign=middle;whiteSpace=wrap;rounded=0;shadow=0;glass=0;sketch=1;fontSize=16;opacity=50;" vertex="1" parent="1">
          <mxGeometry x="390" y="120" width="140" height="110" as="geometry" />
        </mxCell>
        <mxCell id="EInlpvZuZS8mgnIWAViY-21" value="" style="rounded=1;whiteSpace=wrap;html=1;glass=0;fontSize=16;align=right;opacity=50;sketch=1;shadow=0;" vertex="1" parent="1">
          <mxGeometry x="380" y="414" width="180" height="90" as="geometry" />
        </mxCell>
        <mxCell id="EInlpvZuZS8mgnIWAViY-24" value="&lt;font style=&quot;font-size: 16px&quot;&gt;Goals: [ENTER USER GOALS HERE]&lt;/font&gt;" style="text;html=1;strokeColor=none;fillColor=none;align=center;verticalAlign=middle;whiteSpace=wrap;rounded=0;shadow=0;glass=0;sketch=1;fontSize=12;opacity=50;" vertex="1" parent="1">
          <mxGeometry x="390" y="336" width="145" height="30" as="geometry" />
        </mxCell>
        <mxCell id="EInlpvZuZS8mgnIWAViY-26" value="&lt;font style=&quot;font-size: 16px&quot;&gt;Dislikes: [ENTER USER DISLIKES HERE]&lt;/font&gt;" style="text;html=1;strokeColor=none;fillColor=none;align=center;verticalAlign=middle;whiteSpace=wrap;rounded=0;shadow=0;glass=0;sketch=1;fontSize=12;opacity=50;" vertex="1" parent="1">
          <mxGeometry x="390" y="444" width="145" height="30" as="geometry" />
        </mxCell>
        <mxCell id="EInlpvZuZS8mgnIWAViY-27" value="&lt;font style=&quot;font-size: 16px&quot;&gt;Motivations: [ENTER MOTIVATIONS HERE]&lt;/font&gt;" style="text;html=1;strokeColor=none;fillColor=none;align=center;verticalAlign=middle;whiteSpace=wrap;rounded=0;shadow=0;glass=0;sketch=1;fontSize=16;opacity=50;" vertex="1" parent="1">
          <mxGeometry x="620" y="273" width="120" height="30" as="geometry" />
        </mxCell>
        <mxCell id="EInlpvZuZS8mgnIWAViY-28" value="&lt;font style=&quot;font-size: 16px&quot;&gt;Personality: [ENTER PERSONALITY&amp;nbsp; TRAITS HERE]&lt;/font&gt;" style="text;html=1;strokeColor=none;fillColor=none;align=center;verticalAlign=middle;whiteSpace=wrap;rounded=0;shadow=0;glass=0;sketch=1;fontSize=16;opacity=50;" vertex="1" parent="1">
          <mxGeometry x="620" y="120" width="120" height="30" as="geometry" />
        </mxCell>
        <mxCell id="EInlpvZuZS8mgnIWAViY-29" value="&lt;font style=&quot;font-size: 16px&quot;&gt;Technology: [ENTER USER TECHNOLOGY EXPERIENCE HERE]&lt;/font&gt;" style="text;whiteSpace=wrap;html=1;fontSize=16;" vertex="1" parent="1">
          <mxGeometry x="600" y="410" width="160" height="30" as="geometry" />
        </mxCell>
      </root>
    </mxGraphModel>
  </diagram>
</mxfile>
